<svg xmlns="http://www.w3.org/2000/svg" xmlns:xlink="http://www.w3.org/1999/xlink" viewBox="0 0 1024 1024" width="1024" height="1024" preserveAspectRatio="xMidYMid meet" style="width: 100%; height: 100%; transform: translate3d(0px, 0px, 0px); content-visibility: visible;" id="Hand Over Mouth"><defs><clipPath id="__lottie_element_2"><rect width="1024" height="1024" x="0" y="0"/></clipPath><radialGradient id="__lottie_element_7" spreadMethod="pad" gradientUnits="userSpaceOnUse" cx="0" cy="0" r="56.224998474121094" fx="0" fy="0"><stop offset="48%" stop-color="rgb(253,224,48)"/><stop offset="69%" stop-color="rgb(250,208,45)"/><stop offset="90%" stop-color="rgb(247,192,43)"/><stop offset="97%" stop-color="rgb(246,177,39)"/><stop offset="100%" stop-color="rgb(244,162,35)"/></radialGradient><linearGradient id="__lottie_element_11" spreadMethod="pad" gradientUnits="userSpaceOnUse" x1="0" y1="57.75" x2="0" y2="-57.75"><stop offset="15%" stop-color="rgb(244,162,35)"/><stop offset="24%" stop-color="rgb(246,177,39)"/><stop offset="33%" stop-color="rgb(247,192,43)"/><stop offset="56%" stop-color="rgb(250,208,45)"/><stop offset="80%" stop-color="rgb(253,224,48)"/></linearGradient><mask id="__lottie_element_13"><path fill="url(#__lottie_element_12)" d=" M0,55.900001525878906 C-27.899999618530273,55.900001525878906 -58,38.400001525878906 -58,0 C-58,-38.400001525878906 -27.899999618530273,-55.900001525878906 0,-55.900001525878906 C15.5,-55.900001525878906 29.799999237060547,-50.79999923706055 40.400001525878906,-41.5 C51.900001525878906,-31.299999237060547 58,-16.899999618530273 58,0 C58,16.899999618530273 51.900001525878906,31.200000762939453 40.400001525878906,41.400001525878906 C29.799999237060547,50.70000076293945 15.399999618530273,55.900001525878906 0,55.900001525878906z"/></mask><linearGradient id="__lottie_element_12" spreadMethod="pad" gradientUnits="userSpaceOnUse" x1="0" y1="57.75" x2="0" y2="-57.75"><stop stop-color="rgb(255,255,255)" offset="33%" stop-opacity="1"/><stop stop-color="rgb(255,255,255)" offset="56%" stop-opacity="0.5"/><stop stop-color="rgb(255,255,255)" offset="80%" stop-opacity="0"/></linearGradient><g id="__lottie_element_17"><g transform="matrix(8,0,0,8,496,488)" opacity="1" style="display: block;"><g opacity="1" transform="matrix(1,0,0,1,0,0)"><path fill="url(#__lottie_element_20)" fill-opacity="1" d=" M0,55.900001525878906 C-27.899999618530273,55.900001525878906 -58,38.400001525878906 -58,0 C-58,-38.400001525878906 -27.899999618530273,-55.900001525878906 0,-55.900001525878906 C15.5,-55.900001525878906 29.799999237060547,-50.79999923706055 40.400001525878906,-41.5 C51.900001525878906,-31.299999237060547 58,-16.899999618530273 58,0 C58,16.899999618530273 51.900001525878906,31.200000762939453 40.400001525878906,41.400001525878906 C29.799999237060547,50.70000076293945 15.399999618530273,55.900001525878906 0,55.900001525878906z"/></g></g></g><radialGradient id="__lottie_element_20" spreadMethod="pad" gradientUnits="userSpaceOnUse" cx="0" cy="0" r="56.224998474121094" fx="0" fy="0"><stop offset="48%" stop-color="rgb(253,224,48)"/><stop offset="69%" stop-color="rgb(250,208,45)"/><stop offset="90%" stop-color="rgb(247,192,43)"/><stop offset="97%" stop-color="rgb(246,177,39)"/><stop offset="100%" stop-color="rgb(244,162,35)"/></radialGradient><radialGradient id="__lottie_element_27" spreadMethod="pad" gradientUnits="userSpaceOnUse" cx="10" cy="-98" r="500.00399998400013" fx="10" fy="-98"><stop offset="27%" stop-color="rgb(255,241,118)"/><stop offset="63%" stop-color="rgb(255,219,59)"/><stop offset="100%" stop-color="rgb(255,196,0)"/></radialGradient><filter id="__lottie_element_28" filterUnits="objectBoundingBox" x="0%" y="0%" width="100%" height="100%"><feComponentTransfer in="SourceGraphic"><feFuncA type="table" tableValues="1.0 0.0"/></feComponentTransfer></filter><mask id="__lottie_element_17_2" mask-type="alpha"><g filter="url(#__lottie_element_28)"><rect width="1024" height="1024" x="0" y="0" fill="#ffffff" opacity="0"/><use xmlns:ns1="http://www.w3.org/1999/xlink" ns1:href="#__lottie_element_17"/></g></mask></defs><g clip-path="url(#__lottie_element_2)"><g transform="matrix(8,0,0,8,512,512)" opacity="1" style="display: block;"><g opacity="1" transform="matrix(1,0,0,1,0,0)"><path fill="url(#__lottie_element_7)" fill-opacity="1" d=" M0,55.900001525878906 C-27.899999618530273,55.900001525878906 -58,38.400001525878906 -58,0 C-58,-38.400001525878906 -27.899999618530273,-55.900001525878906 0,-55.900001525878906 C15.5,-55.900001525878906 29.799999237060547,-50.79999923706055 40.400001525878906,-41.5 C51.900001525878906,-31.299999237060547 58,-16.899999618530273 58,0 C58,16.899999618530273 51.900001525878906,31.200000762939453 40.400001525878906,41.400001525878906 C29.799999237060547,50.70000076293945 15.399999618530273,55.900001525878906 0,55.900001525878906z"/></g></g><g transform="matrix(8,0,0,8,512,512)" opacity="1" style="display: block;"><g opacity="1" transform="matrix(1,0,0,1,0,0)"><path fill="url(#__lottie_element_11)" mask="url(#__lottie_element_13)" fill-opacity="1" d="M0 0 M0,55.900001525878906 C-27.899999618530273,55.900001525878906 -58,38.400001525878906 -58,0 C-58,-38.400001525878906 -27.899999618530273,-55.900001525878906 0,-55.900001525878906 C15.5,-55.900001525878906 29.799999237060547,-50.79999923706055 40.400001525878906,-41.5 C51.900001525878906,-31.299999237060547 58,-16.899999618530273 58,0 C58,16.899999618530273 51.900001525878906,31.200000762939453 40.400001525878906,41.400001525878906 C29.799999237060547,50.70000076293945 15.399999618530273,55.900001525878906 0,55.900001525878906z"/></g></g><g mask="url(#__lottie_element_17_2)" style="display: block;"><g transform="matrix(8,0,0,8,512,512)" opacity="1"><g opacity="1" transform="matrix(1,0,0,1,0,0)"><path fill="rgb(235,143,0)" fill-opacity="1" d=" M0,55.900001525878906 C-27.899999618530273,55.900001525878906 -58,38.400001525878906 -58,0 C-58,-38.400001525878906 -27.899999618530273,-55.900001525878906 0,-55.900001525878906 C15.5,-55.900001525878906 29.799999237060547,-50.79999923706055 40.400001525878906,-41.5 C51.900001525878906,-31.299999237060547 58,-16.899999618530273 58,0 C58,16.899999618530273 51.900001525878906,31.200000762939453 40.400001525878906,41.400001525878906 C29.799999237060547,50.70000076293945 15.399999618530273,55.900001525878906 0,55.900001525878906z"/></g></g></g><g transform="matrix(8,0,0,8,292.3999938964844,359.1990051269531)" opacity="1" style="display: block;"><g opacity="1" transform="matrix(1,0,0,1,8.25,9.649999618530273)"><path fill="rgb(66,43,13)" fill-opacity="1" d=" M0,-12.399999618530273 C0,-12.399999618530273 0,-12.399999618530273 0,-12.399999618530273 C-4.199999809265137,-12.399999618530273 -8,-8.899999618530273 -8,-3 C-8,2.9000000953674316 -4.199999809265137,6.400000095367432 0,6.400000095367432 C4.199999809265137,6.400000095367432 8,2.9000000953674316 8,-3 C8,-8.899999618530273 4.199999809265137,-12.399999618530273 0,-12.399999618530273z"/></g><g opacity="1" transform="matrix(1,0,0,1,6.300000190734863,6.550000190734863)"><path fill="rgb(136,95,35)" fill-opacity="1" d=" M1.5499999523162842,-5.300000190734863 C1.5499999523162842,-5.300000190734863 1.5499999523162842,-5.300000190734863 1.5499999523162842,-5.300000190734863 C0.15000000596046448,-6 -1.5499999523162842,-5.400000095367432 -2.25,-4 C-2.75,-2.9000000953674316 -2.549999952316284,-1.600000023841858 -1.649999976158142,-0.699999988079071 C-0.25,0 1.4500000476837158,-0.6000000238418579 2.1500000953674316,-2 C2.75,-3.0999999046325684 2.450000047683716,-4.5 1.5499999523162842,-5.300000190734863z"/></g><g opacity="1" transform="matrix(1,0,0,1,46.650001525878906,9.649999618530273)"><path fill="rgb(66,43,13)" fill-opacity="1" d=" M0,-12.399999618530273 C0,-12.399999618530273 0,-12.399999618530273 0,-12.399999618530273 C-4.199999809265137,-12.399999618530273 -8,-8.899999618530273 -8,-3 C-8,2.9000000953674316 -4.199999809265137,6.400000095367432 0,6.400000095367432 C4.199999809265137,6.400000095367432 8,2.9000000953674316 8,-3 C8,-8.899999618530273 4.199999809265137,-12.399999618530273 0,-12.399999618530273z"/></g><g opacity="1" transform="matrix(1,0,0,1,44.650001525878906,6.550000190734863)"><path fill="rgb(136,95,35)" fill-opacity="1" d=" M1.6009999513626099,-5.300000190734863 C1.6009999513626099,-5.300000190734863 1.6009999513626099,-5.300000190734863 1.6009999513626099,-5.300000190734863 C0.20100000500679016,-6 -1.5010000467300415,-5.400000095367432 -2.2009999752044678,-4 C-2.7009999752044678,-2.9000000953674316 -2.500999927520752,-1.600000023841858 -1.600000023841858,-0.699999988079071 C-0.20100000500679016,0 1.5,-0.6000000238418579 2.2009999752044678,-2 C2.7009999752044678,-3.0999999046325684 2.5,-4.5 1.6009999513626099,-5.300000190734863z"/></g></g><g transform="matrix(1,-0.0000050679914238571655,0.0000050679914238571655,1,506.9996337890625,731.99951171875)" opacity="1" style="display: block;"><g opacity="1" transform="matrix(1,0,0,1,0,0)"><path fill="url(#__lottie_element_27)" fill-opacity="1" d=" M266.44000244140625,-68.08000183105469 C248.67999267578125,-93.5199966430664 202.44000244140625,-67.5199966430664 202.44000244140625,-67.5199966430664 C202.44000244140625,-67.5199966430664 226.44000244140625,-88.4000015258789 246.44000244140625,-107.5199966430664 C259.239990234375,-119.76000213623047 270.44000244140625,-145.83999633789062 259.9599914550781,-163.52000427246094 C249.47999572753906,-181.1999969482422 219,-180.0800018310547 204.0399932861328,-170.8800048828125 C204.0399932861328,-170.8800048828125 145.39999389648438,-134.8800048828125 145.39999389648438,-134.8800048828125 C145.39999389648438,-134.8800048828125 167.39999389648438,-144.47999572753906 174.0399932861328,-182.24000549316406 C178.1999969482422,-197.52000427246094 169.24000549316406,-213.27999877929688 153.9600067138672,-217.44000244140625 C151.0800018310547,-218.24000549316406 148.1199951171875,-218.55999755859375 145.16000366210938,-218.39999389648438 C131.32000732421875,-217.1999969482422 118.12000274658203,-212.0800018310547 107,-203.67999267578125 C64.5999984741211,-173.60000610351562 -48.599998474121094,-96.87999725341797 -73.95999908447266,-98.87999725341797 C-83.80000305175781,-99.68000030517578 -71.16000366210938,-130 -52.91999816894531,-147.44000244140625 C-34.68000030517578,-164.8800048828125 -14.119999885559082,-205.0399932861328 -25.719999313354492,-232.63999938964844 C-32.52000045776367,-248.63999938964844 -59.79999923706055,-260.1600036621094 -69.63999938964844,-244.72000122070312 C-77.08000183105469,-233.36000061035156 -105.72000122070312,-196.55999755859375 -134.1999969482422,-168.8800048828125 C-162.67999267578125,-141.1199951171875 -209.55999755859375,-79.12000274658203 -213.63999938964844,-73.04000091552734 C-243.47999572753906,-28.8799991607666 -295.6400146484375,71.44000244140625 -237.39999389648438,163.75999450683594 C-185.8800048828125,245.52000427246094 -68.27999877929688,249.36000061035156 -8.039999961853027,227.75999450683594 C107.08000183105469,186.9600067138672 213.0800018310547,108.55999755859375 215.0800018310547,106.95999908447266 C236.0399932861328,90.31999969482422 255.0800018310547,65.91999816894531 246.44000244140625,43.68000030517578 C235.8000030517578,16.15999984741211 200.52000427246094,32.47999954223633 200.52000427246094,32.47999954223633 C220.9199981689453,20.079999923706055 239.24000549316406,4.480000019073486 254.67999267578125,-13.760000228881836 C269.32000732421875,-32.63999938964844 278.3599853515625,-50.880001068115234 266.44000244140625,-68.08000183105469z"/></g><g opacity="1" transform="matrix(1,0,0,1,0,0)"><path fill="rgb(235,143,0)" fill-opacity="1" d=" M264.1199951171875,-6.480000019073486 C273.55999755859375,-18.639999389648438 295.6400146484375,-47.040000915527344 276.2799987792969,-74.95999908447266 C269.32000732421875,-84.80000305175781 259.6400146484375,-90.95999908447266 248.36000061035156,-92.87999725341797 C267.32000732421875,-108.63999938964844 287.6400146484375,-145.44000244140625 265.9599914550781,-175.67999267578125 C257.8800048828125,-186.9600067138672 242.44000244140625,-195.75999450683594 217.8800048828125,-190.0800018310547 C200.1999969482422,-186 184.36000061035156,-172.9600067138672 184.36000061035156,-172.9600067138672 C184.9199981689453,-175.1199951171875 198.83999633789062,-214.39999389648438 150.75999450683594,-224.16000366210938 C131.39999389648438,-228.0800018310547 109.4000015258789,-215.27999877929688 96.76000213623047,-205.75999450683594 C23.719999313354492,-153.9199981689453 -64.27999877929688,-106.55999755859375 -61.08000183105469,-113.36000061035156 C-49.720001220703125,-135.9199981689453 -30.520000457763672,-151.60000610351562 -20.1200008392334,-172.16000366210938 C-8.680000305175781,-194.8800048828125 -10.279999732971191,-212.24000549316406 -13.399999618530273,-227.1199951171875 C-18.520000457763672,-251.1199951171875 -40.20000076293945,-266.6400146484375 -62.119998931884766,-259.8399963378906 C-81.4000015258789,-253.83999633789062 -87.4800033569336,-229.1999969482422 -122.04000091552734,-191.83999633789062 C-178.0399932861328,-131.36000061035156 -261.7200012207031,-82.80000305175781 -261.7200012207031,44.720001220703125 C-261.7200012207031,44.720001220703125 -248.0399932861328,-29.280000686645508 -213.63999938964844,-73.19999694824219 C-181.24000549316406,-114.4800033569336 -133.8800048828125,-154.24000549316406 -104.44000244140625,-186.72000122070312 C-76.44000244140625,-217.52000427246094 -76.36000061035156,-228 -67.08000183105469,-235.83999633789062 C-50.91999816894531,-249.44000244140625 -26.1200008392334,-239.9199981689453 -28.600000381469727,-210.32000732421875 C-31.479999542236328,-174.72000122070312 -46.439998626708984,-162.72000122070312 -62.68000030517578,-142.39999389648438 C-72.68000030517578,-129.83999633789062 -83.31999969482422,-115.04000091552734 -87.80000305175781,-104.4800033569336 C-90.68000030517578,-97.76000213623047 -85.16000366210938,-90.55999755859375 -77.87999725341797,-91.5199966430664 C-28.84000015258789,-98 85.08000183105469,-175.9199981689453 114.12000274658203,-194.24000549316406 C123.4000015258789,-201.27999877929688 134.44000244140625,-205.52000427246094 145.55999755859375,-206.55999755859375 C167.47999572753906,-209.67999267578125 166.36000061035156,-178.9600067138672 166.36000061035156,-178.9600067138672 C160.1999969482422,-153.75999450683594 156.27999877929688,-153.75999450683594 131.16000366210938,-132.63999938964844 C113.31999969482422,-117.68000030517578 50.20000076293945,-71.76000213623047 9.239999771118164,-51.119998931884766 C9.239999771118164,-51.119998931884766 9.960000038146973,-41.7599983215332 28.920000076293945,-47.119998931884766 C47.880001068115234,-52.47999954223633 122.5999984741211,-99.44000244140625 162.83999633789062,-131.67999267578125 C162.83999633789062,-131.67999267578125 215,-176.24000549316406 237.24000549316406,-170 C259.79998779296875,-163.60000610351562 257.79998779296875,-147.9199981689453 250.67999267578125,-133.0399932861328 C243.63999938964844,-118.16000366210938 225.16000366210938,-100.23999786376953 195.8800048828125,-77.91999816894531 C143.24000549316406,-37.91999816894531 61.720001220703125,16.639999389648438 61.720001220703125,16.639999389648438 C61.720001220703125,16.639999389648438 63.400001525878906,24.639999389648438 79.23999786376953,20.079999923706055 C111.4800033569336,10.720000267028809 212.1199951171875,-63.84000015258789 212.1199951171875,-63.84000015258789 C219.9600067138672,-69.91999816894531 246.1999969482422,-78.31999969482422 256.44000244140625,-61.119998931884766 C261.9599914550781,-53.040000915527344 260.67999267578125,-39.84000015258789 241.32000732421875,-16.959999084472656 C218.27999877929688,10.479999542236328 147.9600067138672,58.31999969482422 86.83999633789062,93.04000091552734 C86.83999633789062,93.04000091552734 91.4800033569336,100.87999725341797 108.36000061035156,95.12000274658203 C125.23999786376953,89.36000061035156 195,46.880001068115234 206.0399932861328,43.20000076293945 C217.0800018310547,39.52000045776367 228.1199951171875,36 235.47999572753906,49.040000915527344 C244.1999969482422,67.04000091552734 232.52000427246094,81.27999877929688 209.39999389648438,99.68000030517578 C208.44000244140625,100.4000015258789 98.36000061035156,186.47999572753906 -16.1200008392334,225.1999969482422 C-76.5999984741211,245.67999267578125 -144.1999969482422,235.1199951171875 -221.72000122070312,184.47999572753906 C-174.67999267578125,241.27999877929688 -71.95999908447266,266.6400146484375 -2.2799999713897705,241.1999969482422 C114.91999816894531,198.32000732421875 223.39999389648438,119.19999694824219 224.27999877929688,118.4800033569336 C241.0800018310547,105.12000274658203 276.0400085449219,77.44000244140625 256.760009765625,37.84000015258789 C251.72000122070312,28.959999084472656 245,23.440000534057617 237.63999938964844,20.31999969482422 C247.16000366210938,12.15999984741211 255.9600067138672,3.200000047683716 264.1199951171875,-6.480000019073486z"/></g></g></g></svg>